{
.appVersion = "3151";
.formatVersion = 3;
DisplayStrings = (
"
ABCDEFGHIJK/K.001 L
LMNOP/P.002 QRS/S.008 T
UVWX/X.001 Y/Y.002/Y.001 Z
KAMU
VHUDZI
AFRO HAIR
AND WIDE TOOTHED GAPS
WIDE TOOTHED
AFRO COMBS
AFRO COMB
AFRO BEATS







"
);
date = "2023-11-04 12:32:59 +0000";
familyName = Vhudzi;
fontMaster = (
{
id = m01;
metricValues = (
{
pos = 800;
},
{
pos = 800;
},
{
pos = 700;
},
{
},
{
pos = -200;
}
);
name = Regular;
userData = {
GSCornerRadius = 80;
};
}
);
glyphs = (
{
glyphname = A;
lastChange = "2023-11-28 01:44:55 +0000";
layers = (
{
layerId = m01;
shapes = (
{
closed = 1;
nodes = (
(624,500,l),
(646,630,o),
(573,700,o),
(424,700,cs),
(232,700,ls),
(102,700,o),
(14,630,o),
(32,500,c)
);
},
{
closed = 1;
nodes = (
(129,0,l),
(181,0,l),
(181,500,l),
(31,500,l)
);
},
{
closed = 1;
nodes = (
(474,500,l),
(474,0,l),
(526,0,l),
(624,500,l)
);
},
{
closed = 1;
nodes = (
(181,325,l),
(482,325,l),
(482,375,l),
(181,375,l)
);
}
);
width = 658;
}
);
unicode = 65;
},
{
glyphname = B;
lastChange = "2023-11-28 02:52:44 +0000";
layers = (
{
layerId = m01;
shapes = (
{
closed = 1;
nodes = (
(187,157,l),
(187,325,l),
(516,325,l),
(516,149,l),
(602,149,l),
(629,267,ls),
(639,310,o),
(609,346,o),
(565,350,c),
(580,357,o),
(592,371,o),
(625,500,cs),
(652,603,o),
(590,700,o),
(424,700,cs),
(232,700,ls),
(102,700,o),
(14,630,o),
(32,500,c),
(31,500,l),
(96,156,l)
);
},
{
closed = 1;
nodes = (
(187,500,l),
(466,500,l),
(466,375,l),
(187,375,l)
);
},
{
closed = 1;
nodes = (
(95,160,l),
(109,56,o),
(155,0,o),
(266,0,cs),
(431,0,ls),
(543,0,o),
(584,56,o),
(603,160,c),
(532,161,l),
(166,161,l)
);
}
);
width = 661;
}
);
unicode = 66;
},
{
glyphname = C;
lastChange = "2023-11-28 02:49:22 +0000";
layers = (
{
layerId = m01;
shapes = (
{
closed = 1;
nodes = (
(624,500,l),
(646,630,o),
(573,700,o),
(424,700,cs),
(232,700,ls),
(102,700,o),
(14,630,o),
(32,500,c)
);
},
{
closed = 1;
nodes = (
(181,151,l),
(181,500,l),
(31,500,l),
(91,150,l)
);
},
{
closed = 1;
nodes = (
(90,160,l),
(104,56,o),
(152,0,o),
(266,0,cs),
(436,0,ls),
(551,0,o),
(592,56,o),
(612,160,c),
(540,161,l),
(163,161,l)
);
}
);
width = 658;
}
);
unicode = 67;
},
{
glyphname = E;
lastChange = "2023-11-28 02:50:02 +0000";
layers = (
{
layerId = m01;
shapes = (
{
closed = 1;
nodes = (
(157,324,l),
(529,324,l),
(529,374,l),
(157,374,l)
);
},
{
closed = 1;
nodes = (
(624,500,l),
(646,630,o),
(573,700,o),
(424,700,cs),
(232,700,ls),
(102,700,o),
(14,630,o),
(32,500,c)
);
},
{
closed = 1;
nodes = (
(181,151,l),
(181,500,l),
(31,500,l),
(91,150,l)
);
},
{
closed = 1;
nodes = (
(90,160,l),
(104,56,o),
(152,0,o),
(266,0,cs),
(436,0,ls),
(551,0,o),
(592,56,o),
(612,160,c),
(540,161,l),
(163,161,l)
);
}
);
width = 660;
}
);
unicode = 69;
},
{
glyphname = F;
lastChange = "2023-11-28 01:36:59 +0000";
layers = (
{
layerId = m01;
shapes = (
{
closed = 1;
nodes = (
(30,630,o)
);
},
{
closed = 1;
nodes = (
(640,500,l),
(662,630,o),
(589,700,o),
(440,700,cs),
(248,700,ls),
(118,700,o),
(30,630,o),
(48,500,c)
);
},
{
closed = 1;
nodes = (
(145,0,l),
(197,0,l),
(197,500,l),
(47,500,l)
);
},
{
closed = 1;
nodes = (
(197,325,l),
(490,325,l),
(490,375,l),
(197,375,l)
);
}
);
width = 674;
}
);
unicode = 70;
},
{
glyphname = G;
lastChange = "2023-11-28 02:45:33 +0000";
layers = (
{
layerId = m01;
shapes = (
{
closed = 1;
nodes = (
(535,322,l),
(535,149,l),
(585,149,l),
(625,322,l)
);
},
{
closed = 1;
nodes = (
(598,500,l),
(620,630,o),
(547,700,o),
(398,700,cs),
(206,700,ls),
(76,700,o),
(-12,630,o),
(6,500,c)
);
},
{
closed = 1;
nodes = (
(153,151,l),
(153,500,l),
(3,500,l),
(63,150,l)
);
},
{
closed = 1;
nodes = (
(63,150,l),
(77,46,o),
(125,-10,o),
(239,-10,cs),
(409,-10,ls),
(524,-10,o),
(565,46,o),
(585,150,c),
(513,151,l),
(136,151,l)
);
},
{
closed = 1;
nodes = (
(255,321,l),
(623,321,l),
(635,371,l),
(255,371,l)
);
}
);
width = 635;
},
{
associatedMasterId = m01;
layerId = "6271039D-EA1C-457D-BC14-D652E1EC9468";
name = "Rounded Alt";
shapes = (
{
closed = 1;
nodes = (
(176,700,o),
(82,715,o),
(52,583,c),
(-26,150,ls),
(-57,-22,o),
(77,0,o),
(230,0,cs),
(327,0,ls),
(486,0,o),
(573,67,o),
(577,192,cs),
(577,369,l),
(245,369,l),
(245,301,l),
(509,301,l),
(509,251,ls),
(509,222,o),
(487,200,o),
(458,200,cs),
(102,200,l),
(102,500,l),
(577,500,l),
(577,630,o),
(499,700,o),
(353,700,cs),
(274,700,ls)
);
}
);
width = 607;
}
);
unicode = 71;
},
{
glyphname = H;
lastChange = "2023-11-28 01:37:35 +0000";
layers = (
{
layerId = m01;
shapes = (
{
closed = 1;
nodes = (
(193,374,l),
(193,696,l),
(92,700,o),
(10,614,o),
(34,500,cs),
(141,0,l),
(193,0,l),
(193,296,l)
);
},
{
closed = 1;
nodes = (
(472,0,l),
(524,0,l),
(631,500,ls),
(655,614,o),
(573,700,o),
(472,696,c),
(472,374,l),
(472,296,l)
);
},
{
closed = 1;
nodes = (
(191,325,l),
(472,325,l),
(472,375,l),
(191,375,l)
);
}
);
width = 665;
}
);
unicode = 72;
},
{
glyphname = I;
lastChange = "2023-11-27 18:58:39 +0000";
layers = (
{
layerId = m01;
shapes = (
{
closed = 1;
nodes = (
(236,653,o),
(219,683,o),
(185,694,c),
(172,698,o),
(155,700,o),
(139,700,cs),
(123,700,o),
(106,698,o),
(93,694,c),
(59,683,o),
(42,653,o),
(40,624,c),
(39,615,o),
(121,2,o),
(121,0,c),
(157,0,l),
(157,2,o),
(239,615,o),
(238,624,c)
);
}
);
width = 280;
}
);
unicode = 73;
},
{
glyphname = J;
lastChange = "2023-11-27 18:59:15 +0000";
layers = (
{
layerId = m01;
shapes = (
{
closed = 1;
nodes = (
(15,61,o),
(96,-9,o),
(214,-9,cs),
(335,-9,ls),
(471,-9,o),
(538,61,o),
(518,191,c),
(32,191,l)
);
},
{
closed = 1;
nodes = (
(431,691,l),
(386,691,l),
(386,191,l),
(516,191,l)
);
}
);
width = 551;
}
);
unicode = 74;
},
{
glyphname = K;
lastChange = "2023-11-28 01:42:49 +0000";
layers = (
{
layerId = m01;
shapes = (
{
closed = 1;
nodes = (
(186,698,l),
(85,681,o),
(17,612,o),
(32,500,c),
(31,500,l),
(135,0,l),
(187,0,l),
(187,325,l),
(516,325,l),
(516,0,l),
(568,0,l),
(629,267,ls),
(639,310,o),
(609,346,o),
(565,350,c),
(580,357,o),
(592,371,o),
(625,500,cs),
(650,595,o),
(603,685,o),
(464,698,c),
(466,375,l),
(187,375,l)
);
}
);
width = 661;
}
);
unicode = 75;
},
{
glyphname = L;
lastChange = "2023-11-28 02:55:23 +0000";
layers = (
{
layerId = m01;
shapes = (
{
closed = 1;
nodes = (
(44,200,l),
(22,70,o),
(95,0,o),
(244,0,cs),
(376,0,ls),
(506,0,o),
(594,70,o),
(576,200,c)
);
},
{
closed = 1;
nodes = (
(174,200,l),
(174,700,l),
(129,700,l),
(44,200,l)
);
}
);
width = 598;
}
);
unicode = 76;
},
{
glyphname = M;
lastChange = "2023-11-28 01:58:40 +0000";
layers = (
{
layerId = m01;
shapes = (
{
closed = 1;
nodes = (
(379,501,l),
(379,0,l),
(429,0,l),
(429,501,l)
);
},
{
closed = 1;
nodes = (
(772,501,l),
(801,631,o),
(709,701,o),
(523,701,cs),
(284,701,ls),
(121,701,o),
(11,631,o),
(33,501,c)
);
},
{
closed = 1;
nodes = (
(130,0,l),
(182,0,l),
(182,501,l),
(32,501,l)
);
},
{
closed = 1;
nodes = (
(622,501,l),
(622,0,l),
(674,0,l),
(772,501,l)
);
}
);
width = 807;
}
);
unicode = 77;
},
{
glyphname = N;
lastChange = "2023-11-27 18:42:49 +0000";
layers = (
{
layerId = m01;
shapes = (
{
closed = 1;
nodes = (
(624,500,l),
(646,630,o),
(573,700,o),
(424,700,cs),
(232,700,ls),
(102,700,o),
(14,630,o),
(32,500,c)
);
},
{
closed = 1;
nodes = (
(129,0,l),
(181,0,l),
(181,510,l),
(31,510,l)
);
},
{
closed = 1;
nodes = (
(476,510,l),
(476,0,l),
(528,0,l),
(626,510,l)
);
}
);
width = 658;
}
);
unicode = 78;
},
{
glyphname = O;
lastChange = "2023-11-28 02:31:29 +0000";
layers = (
{
layerId = m01;
shapes = (
{
closed = 1;
nodes = (
(89,150,l),
(102,46,o),
(146,0,o),
(250,0,cs),
(405,0,ls),
(510,0,o),
(548,46,o),
(566,150,cs),
(625,500,ls),
(647,630,o),
(574,700,o),
(425,700,cs),
(233,700,ls),
(103,700,o),
(12,630,o),
(33,500,cs)
);
},
{
closed = 1;
nodes = (
(156,500,l),
(500,500,l),
(500,151,l),
(156,151,l)
);
}
);
width = 659;
}
);
unicode = 79;
},
{
glyphname = P;
lastChange = "2023-11-28 02:01:02 +0000";
layers = (
{
layerId = m01;
shapes = (
{
closed = 1;
nodes = (
(545,325,ls),
(572,325,o),
(595,342,o),
(601,369,cs),
(631,500,ls),
(657,614,o),
(573,700,o),
(472,696,c),
(472,325,l)
);
},
{
closed = 1;
nodes = (
(630,500,l),
(652,630,o),
(579,700,o),
(430,700,cs),
(238,700,ls),
(108,700,o),
(20,630,o),
(38,500,c)
);
},
{
closed = 1;
nodes = (
(37,500,l),
(141,0,l),
(193,0,l),
(193,500,l)
);
},
{
closed = 1;
nodes = (
(193,325,l),
(482,325,l),
(482,375,l),
(193,375,l)
);
}
);
width = 656;
}
);
unicode = 80;
},
{
glyphname = Q;
lastChange = "2023-11-28 02:57:15 +0000";
layers = (
{
layerId = m01;
shapes = (
{
closed = 1;
nodes = (
(429,-129,l),
(494,-129,l),
(494,111,l),
(344,111,l)
);
},
{
closed = 1;
nodes = (
(89,150,l),
(102,46,o),
(146,0,o),
(250,0,cs),
(405,0,ls),
(510,0,o),
(548,46,o),
(566,150,cs),
(625,500,ls),
(647,630,o),
(574,700,o),
(425,700,cs),
(233,700,ls),
(103,700,o),
(12,630,o),
(33,500,cs)
);
},
{
closed = 1;
nodes = (
(156,500,l),
(500,500,l),
(500,151,l),
(156,151,l)
);
}
);
width = 658;
}
);
unicode = 81;
},
{
glyphname = R;
lastChange = "2023-11-28 02:40:06 +0000";
layers = (
{
layerId = m01;
shapes = (
{
closed = 1;
nodes = (
(609,310,o),
(579,346,o),
(535,350,c),
(550,357,o),
(562,371,o),
(595,500,cs),
(622,603,o),
(560,700,o),
(394,700,cs),
(202,700,ls),
(72,700,o),
(-16,630,o),
(2,500,c),
(1,500,l),
(105,0,l),
(157,0,l),
(157,325,l),
(486,325,l),
(486,0,l),
(538,0,l),
(599,267,ls)
);
},
{
closed = 1;
nodes = (
(157,500,l),
(436,500,l),
(436,375,l),
(157,375,l)
);
}
);
width = 631;
}
);
unicode = 82;
},
{
glyphname = S;
lastChange = "2023-11-28 02:39:01 +0000";
layers = (
{
layerId = m01;
shapes = (
{
closed = 1;
nodes = (
(594,500,l),
(616,630,o),
(543,700,o),
(394,700,cs),
(202,700,ls),
(72,700,o),
(-16,630,o),
(2,500,c)
);
},
{
closed = 1;
nodes = (
(151,325,l),
(151,500,l),
(1,500,l),
(24,387,ls),
(31,350,o),
(61,325,o),
(99,325,cs)
);
},
{
closed = 1;
nodes = (
(580,275,ls),
(589,330,o),
(551,375,o),
(495,375,cs),
(446,375,l),
(446,143,l),
(558,143,l)
);
},
{
closed = 1;
nodes = (
(151,325,l),
(462,325,l),
(462,375,l),
(151,375,l)
);
},
{
closed = 1;
nodes = (
(83,150,l),
(96,46,o),
(140,0,o),
(244,0,cs),
(399,0,ls),
(504,0,o),
(542,46,o),
(560,150,c)
);
}
);
width = 598;
}
);
unicode = 83;
},
{
glyphname = T;
lastChange = "2023-11-28 01:50:13 +0000";
layers = (
{
layerId = m01;
shapes = (
{
closed = 1;
nodes = (
(249,502,l),
(314,4,l),
(348,4,l),
(411,502,l)
);
},
{
closed = 1;
nodes = (
(625,500,l),
(647,630,o),
(574,700,o),
(425,700,cs),
(233,700,ls),
(103,700,o),
(15,630,o),
(33,500,c)
);
}
);
width = 638;
}
);
unicode = 84;
},
{
glyphname = U;
lastChange = "2023-11-28 03:03:23 +0000";
layers = (
{
layerId = m01;
shapes = (
{
closed = 1;
nodes = (
(24,70,o),
(112,0,o),
(242,0,cs),
(434,0,ls),
(583,0,o),
(656,70,o),
(634,200,c),
(42,200,l)
);
},
{
closed = 1;
nodes = (
(192,200,l),
(192,698,l),
(140,698,l),
(42,200,l)
);
},
{
closed = 1;
nodes = (
(536,698,l),
(484,698,l),
(484,200,l),
(634,200,l)
);
}
);
width = 678;
}
);
unicode = 85;
},
{
glyphname = V;
lastChange = "2023-11-28 03:03:29 +0000";
layers = (
{
layerId = m01;
shapes = (
{
closed = 1;
nodes = (
(221,201,l),
(181,702,l),
(80,697,o),
(3,606,o),
(39,492,cs),
(132,201,l)
);
},
{
closed = 1;
nodes = (
(312,201,l),
(132,201,l),
(166,71,o),
(193,1,o),
(261,1,cs),
(312,1,l)
);
},
{
closed = 1;
nodes = (
(584,492,ls),
(620,606,o),
(543,697,o),
(442,702,c),
(402,201,l),
(491,201,l)
);
},
{
closed = 1;
nodes = (
(362,1,ls),
(430,1,o),
(457,71,o),
(491,201,c),
(311,201,l),
(311,1,l)
);
}
);
width = 623;
}
);
unicode = 86;
},
{
glyphname = W;
lastChange = "2023-11-28 03:01:26 +0000";
layers = (
{
layerId = m01;
shapes = (
{
closed = 1;
nodes = (
(439,701,l),
(389,701,l),
(389,201,l),
(439,201,l)
);
},
{
closed = 1;
nodes = (
(21,71,o),
(131,1,o),
(294,1,cs),
(533,1,ls),
(719,1,o),
(811,71,o),
(782,201,c),
(43,201,l)
);
},
{
closed = 1;
nodes = (
(193,201,l),
(193,701,l),
(141,701,l),
(43,201,l)
);
},
{
closed = 1;
nodes = (
(684,701,l),
(632,701,l),
(632,201,l),
(782,201,l)
);
},
{
closed = 1;
nodes = (
(43,160,l),
(53,56,o),
(131,0,o),
(292,0,cs),
(533,0,ls),
(695,0,o),
(793,56,o),
(782,160,c),
(681,161,l),
(147,161,l)
);
}
);
width = 827;
}
);
unicode = 87;
},
{
glyphname = X;
lastChange = "2023-11-27 19:46:29 +0000";
layers = (
{
layerId = m01;
shapes = (
{
closed = 1;
nodes = (
(221,437,l),
(181,702,l),
(80,699,o),
(3,651,o),
(39,591,cs),
(132,437,l)
);
},
{
closed = 1;
nodes = (
(312,437,l),
(132,437,l),
(166,398,o),
(193,378,o),
(261,378,cs),
(312,378,l)
);
},
{
closed = 1;
nodes = (
(584,591,ls),
(620,651,o),
(543,699,o),
(442,702,c),
(402,437,l),
(491,437,l)
);
},
{
closed = 1;
nodes = (
(362,378,ls),
(430,378,o),
(457,398,o),
(491,437,c),
(311,437,l),
(311,378,l)
);
},
{
closed = 1;
nodes = (
(39,147,ls),
(3,87,o),
(80,39,o),
(181,36,c),
(221,301,l),
(132,301,l)
);
},
{
closed = 1;
nodes = (
(261,407,ls),
(193,407,o),
(166,370,o),
(132,301,c),
(312,301,l),
(312,407,l)
);
},
{
closed = 1;
nodes = (
(402,301,l),
(442,36,l),
(543,39,o),
(620,87,o),
(584,147,cs),
(491,301,l)
);
},
{
closed = 1;
nodes = (
(311,301,l),
(491,301,l),
(457,370,o),
(430,407,o),
(362,407,cs),
(311,407,l)
);
}
);
width = 600;
}
);
unicode = 88;
},
{
glyphname = Y;
lastChange = "2023-11-27 19:39:23 +0000";
layers = (
{
layerId = m01;
shapes = (
{
closed = 1;
nodes = (
(193,296,l),
(193,374,l),
(193,696,l),
(92,700,o),
(5,614,o),
(34,500,cs),
(71,356,l)
);
},
{
closed = 1;
nodes = (
(309,450,l),
(50,450,l),
(75,306,o),
(107,250,o),
(235,250,cs),
(309,250,l)
);
},
{
closed = 1;
nodes = (
(581,500,ls),
(610,614,o),
(523,700,o),
(422,696,c),
(422,374,l),
(422,296,l),
(544,356,l)
);
},
{
closed = 1;
nodes = (
(380,250,ls),
(508,250,o),
(540,306,o),
(565,450,c),
(306,450,l),
(306,250,l)
);
},
{
closed = 1;
nodes = (
(231,439,l),
(288,4,l),
(322,4,l),
(377,439,l)
);
}
);
width = 600;
}
);
unicode = 89;
},
{
glyphname = Z;
lastChange = "2023-11-27 19:40:25 +0000";
layers = (
{
layerId = m01;
shapes = (
{
attr = {
strokeWidth = 50;
};
closed = 0;
nodes = (
(75,182,l),
(651,518,l)
);
},
{
closed = 1;
nodes = (
(71,68,o),
(131,0,o),
(257,0,cs),
(446,0,ls),
(590,0,o),
(627,56,o),
(655,200,c),
(63,200,l)
);
},
{
closed = 1;
nodes = (
(681,630,o),
(593,700,o),
(463,700,cs),
(271,700,ls),
(122,700,o),
(49,630,o),
(71,500,c),
(663,500,l)
);
}
);
width = 678;
}
);
unicode = 90;
},
{
glyphname = A.001;
lastChange = "2023-11-27 17:23:16 +0000";
layers = (
{
layerId = m01;
shapes = (
{
closed = 1;
nodes = (
(614,500,l),
(636,630,o),
(563,700,o),
(414,700,cs),
(222,700,ls),
(92,700,o),
(4,630,o),
(22,500,c)
);
},
{
closed = 1;
nodes = (
(119,0,l),
(171,0,l),
(171,480,ls),
(171,491,o),
(162,500,o),
(151,500,cs),
(21,500,l)
);
},
{
closed = 1;
nodes = (
(171,245,l),
(464,245,l),
(464,293,ls),
(464,304,o),
(455,313,o),
(444,313,cs),
(191,313,ls),
(180,313,o),
(171,304,o),
(171,293,cs)
);
},
{
closed = 1;
nodes = (
(484,500,ls),
(473,500,o),
(464,491,o),
(464,480,cs),
(464,0,l),
(516,0,l),
(614,500,l)
);
}
);
width = 638;
}
);
},
{
glyphname = C.001;
lastChange = "2023-11-21 09:17:40 +0000";
layers = (
{
layerId = m01;
shapes = (
{
closed = 1;
nodes = (
(614,500,l),
(636,630,o),
(563,700,o),
(414,700,cs),
(222,700,ls),
(92,700,o),
(4,630,o),
(22,500,c)
);
},
{
closed = 1;
nodes = (
(171,196,l),
(171,500,l),
(21,500,l),
(81,196,l)
);
},
{
closed = 1;
nodes = (
(80,200,l),
(105,56,o),
(138,0,o),
(270,0,cs),
(441,0,ls),
(556,0,o),
(634,70,o),
(618,200,c)
);
}
);
width = 660;
}
);
},
{
glyphname = C.002;
lastChange = "2023-11-27 17:24:28 +0000";
layers = (
{
layerId = m01;
shapes = (
{
closed = 1;
nodes = (
(614,500,l),
(636,630,o),
(563,700,o),
(414,700,cs),
(222,700,ls),
(92,700,o),
(4,630,o),
(22,500,c)
);
},
{
closed = 1;
nodes = (
(151,151,ls),
(162,151,o),
(171,160,o),
(171,171,cs),
(171,480,ls),
(171,491,o),
(162,500,o),
(151,500,cs),
(21,500,l),
(81,150,l)
);
},
{
closed = 1;
nodes = (
(81,150,l),
(95,46,o),
(143,-10,o),
(257,-10,cs),
(427,-10,ls),
(542,-10,o),
(583,46,o),
(603,150,c),
(531,151,l),
(154,151,l)
);
}
);
width = 667;
}
);
},
{
glyphname = E.001;
lastChange = "2023-11-21 09:17:48 +0000";
layers = (
{
layerId = m01;
shapes = (
{
closed = 1;
nodes = (
(614,500,l),
(636,630,o),
(563,700,o),
(414,700,cs),
(222,700,ls),
(92,700,o),
(4,630,o),
(22,500,c)
);
},
{
closed = 1;
nodes = (
(171,196,l),
(171,500,l),
(21,500,l),
(81,196,l)
);
},
{
closed = 1;
nodes = (
(80,200,l),
(105,56,o),
(138,0,o),
(270,0,cs),
(441,0,ls),
(556,0,o),
(634,70,o),
(618,200,c)
);
},
{
closed = 1;
nodes = (
(147,319,l),
(519,319,l),
(519,379,l),
(147,379,l)
);
}
);
width = 660;
}
);
},
{
glyphname = E.002;
lastChange = "2023-11-27 17:27:44 +0000";
layers = (
{
layerId = m01;
shapes = (
{
closed = 1;
nodes = (
(597,500,ls),
(607,500,o),
(615,507,o),
(616,517,cs),
(629,636,o),
(556,700,o),
(414,700,cs),
(222,700,ls),
(92,700,o),
(4,630,o),
(22,500,c)
);
},
{
closed = 1;
nodes = (
(151,196,ls),
(162,196,o),
(171,205,o),
(171,216,cs),
(171,480,ls),
(171,491,o),
(162,500,o),
(151,500,cs),
(21,500,l),
(81,196,l)
);
},
{
closed = 1;
nodes = (
(80,200,l),
(105,56,o),
(138,0,o),
(270,0,cs),
(441,0,ls),
(550,0,o),
(626,63,o),
(620,182,cs),
(619,193,o),
(610,200,o),
(600,200,cs)
);
},
{
closed = 1;
nodes = (
(147,319,l),
(519,319,l),
(519,379,l),
(147,379,l)
);
}
);
width = 647;
}
);
},
{
glyphname = F.001;
lastChange = "2023-11-27 17:28:39 +0000";
layers = (
{
layerId = m01;
shapes = (
{
closed = 1;
nodes = (
(597,500,ls),
(607,500,o),
(615,507,o),
(616,517,cs),
(629,636,o),
(556,700,o),
(414,700,cs),
(222,700,ls),
(92,700,o),
(4,630,o),
(22,500,c)
);
},
{
closed = 1;
nodes = (
(117,16,ls),
(119,6,o),
(127,0,o),
(136,0,cs),
(152,0,ls),
(163,0,o),
(172,9,o),
(172,20,cs),
(172,480,ls),
(172,491,o),
(163,500,o),
(152,500,cs),
(22,500,l)
);
},
{
closed = 1;
nodes = (
(82,305,l),
(465,305,l),
(465,373,l),
(82,373,l)
);
}
);
width = 658;
}
);
},
{
glyphname = G.001;
lastChange = "2023-11-21 08:02:22 +0000";
layers = (
{
layerId = m01;
width = 600;
},
{
associatedMasterId = m01;
layerId = "6271039D-EA1C-457D-BC14-D652E1EC9468";
name = "Rounded Alt";
shapes = (
{
closed = 1;
nodes = (
(226,700,o),
(132,715,o),
(102,583,c),
(24,150,ls),
(-7,-22,o),
(127,0,o),
(280,0,cs),
(377,0,ls),
(539,0,o),
(627,70,o),
(627,200,c),
(152,200,l),
(152,500,l),
(627,500,l),
(627,630,o),
(549,700,o),
(403,700,cs),
(324,700,ls)
);
},
{
attr = {
strokeWidth = 68;
};
closed = 0;
nodes = (
(295,335,l),
(593,335,l),
(593,192,l)
);
}
);
width = 649;
}
);
},
{
glyphname = G.002;
layers = (
{
layerId = m01;
shapes = (
{
closed = 1;
nodes = (
(226,700,o),
(132,715,o),
(102,583,c),
(24,150,ls),
(-7,-22,o),
(127,0,o),
(280,0,cs),
(377,0,ls),
(539,0,o),
(627,70,o),
(627,200,c),
(152,200,l),
(152,500,l),
(627,500,l),
(627,630,o),
(549,700,o),
(403,700,cs),
(324,700,ls)
);
},
{
attr = {
strokeWidth = 68;
};
closed = 0;
nodes = (
(295,335,l),
(593,335,l),
(593,192,l)
);
}
);
width = 627;
},
{
associatedMasterId = m01;
layerId = "6271039D-EA1C-457D-BC14-D652E1EC9468";
name = "Rounded Alt";
shapes = (
{
closed = 1;
nodes = (
(176,700,o),
(82,715,o),
(52,583,c),
(-26,150,ls),
(-57,-22,o),
(77,0,o),
(230,0,cs),
(327,0,ls),
(486,0,o),
(573,67,o),
(577,192,cs),
(577,369,l),
(245,369,l),
(245,301,l),
(509,301,l),
(509,251,ls),
(509,222,o),
(487,200,o),
(458,200,cs),
(102,200,l),
(102,500,l),
(577,500,l),
(577,630,o),
(499,700,o),
(353,700,cs),
(274,700,ls)
);
}
);
width = 607;
}
);
},
{
glyphname = G.003;
lastChange = "2023-11-21 09:19:47 +0000";
layers = (
{
layerId = m01;
shapes = (
{
closed = 1;
nodes = (
(614,500,l),
(636,630,o),
(563,700,o),
(414,700,cs),
(222,700,ls),
(92,700,o),
(4,630,o),
(22,500,c)
);
},
{
closed = 1;
nodes = (
(171,196,l),
(171,500,l),
(21,500,l),
(81,196,l)
);
},
{
closed = 1;
nodes = (
(80,200,l),
(105,56,o),
(138,0,o),
(270,0,cs),
(441,0,ls),
(556,0,o),
(611,68,o),
(618,200,c)
);
},
{
closed = 1;
nodes = (
(618,196,l),
(618,364,l),
(286,364,l),
(286,296,l),
(550,296,l),
(550,196,l)
);
}
);
width = 660;
},
{
associatedMasterId = m01;
layerId = "6271039D-EA1C-457D-BC14-D652E1EC9468";
name = "Rounded Alt";
shapes = (
{
closed = 1;
nodes = (
(176,700,o),
(82,715,o),
(52,583,c),
(-26,150,ls),
(-57,-22,o),
(77,0,o),
(230,0,cs),
(327,0,ls),
(486,0,o),
(573,67,o),
(577,192,cs),
(577,369,l),
(245,369,l),
(245,301,l),
(509,301,l),
(509,251,ls),
(509,222,o),
(487,200,o),
(458,200,cs),
(102,200,l),
(102,500,l),
(577,500,l),
(577,630,o),
(499,700,o),
(353,700,cs),
(274,700,ls)
);
}
);
width = 607;
}
);
},
{
glyphname = K.001;
lastChange = "2023-11-28 02:53:33 +0000";
layers = (
{
layerId = m01;
shapes = (
{
closed = 1;
nodes = (
(163,696,l),
(62,700,o),
(-20,614,o),
(4,500,cs),
(111,0,l),
(163,0,l)
);
},
{
closed = 1;
nodes = (
(429,365,l),
(429,-1,l),
(481,-1,l),
(542,286,ls),
(551,329,o),
(522,365,o),
(478,365,cs)
);
},
{
closed = 1;
nodes = (
(521,503,ls),
(545,617,o),
(463,703,o),
(362,699,c),
(362,375,l),
(463,375,ls),
(481,375,o),
(496,386,o),
(500,405,cs)
);
},
{
closed = 1;
nodes = (
(161,345,l),
(454,345,l),
(454,395,l),
(161,395,l)
);
}
);
width = 661;
}
);
},
{
glyphname = K.002;
layers = (
{
layerId = m01;
shapes = (
{
closed = 1;
nodes = (
(163,696,l),
(62,700,o),
(-20,614,o),
(4,500,cs),
(111,0,l),
(163,0,l)
);
},
{
closed = 1;
nodes = (
(429,365,l),
(429,-1,l),
(481,-1,l),
(542,286,ls),
(551,329,o),
(522,365,o),
(478,365,cs)
);
},
{
closed = 1;
nodes = (
(521,503,ls),
(545,617,o),
(463,703,o),
(362,699,c),
(362,375,l),
(463,375,ls),
(481,375,o),
(496,386,o),
(500,405,cs)
);
},
{
closed = 1;
nodes = (
(161,345,l),
(454,345,l),
(454,395,l),
(161,395,l)
);
}
);
width = 605;
}
);
},
{
glyphname = P.001;
layers = (
{
layerId = m01;
shapes = (
{
closed = 1;
nodes = (
(591,345,l),
(631,500,ls),
(660,614,o),
(573,700,o),
(472,696,c),
(472,374,l),
(472,345,l)
);
},
{
closed = 1;
nodes = (
(193,345,l),
(515,345,l),
(515,395,l),
(193,395,l)
);
},
{
closed = 1;
nodes = (
(630,500,l),
(652,630,o),
(579,700,o),
(430,700,cs),
(238,700,ls),
(108,700,o),
(20,630,o),
(38,500,c)
);
},
{
closed = 1;
nodes = (
(37,500,l),
(141,0,l),
(193,0,l),
(193,296,l),
(193,374,l),
(193,500,l)
);
}
);
width = 656;
}
);
},
{
glyphname = P.002;
lastChange = "2023-11-28 02:47:22 +0000";
layers = (
{
layerId = m01;
shapes = (
{
closed = 1;
nodes = (
(591,345,l),
(631,500,ls),
(660,614,o),
(573,700,o),
(472,696,c),
(472,374,l),
(472,345,l)
);
},
{
closed = 1;
nodes = (
(193,345,l),
(515,345,l),
(515,395,l),
(193,395,l)
);
},
{
closed = 1;
nodes = (
(630,500,l),
(652,630,o),
(579,700,o),
(430,700,cs),
(238,700,ls),
(108,700,o),
(20,630,o),
(38,500,c)
);
},
{
closed = 1;
nodes = (
(37,500,l),
(141,0,l),
(193,0,l),
(193,296,l),
(193,374,l),
(193,500,l)
);
}
);
width = 656;
}
);
},
{
glyphname = R.001;
layers = (
{
layerId = m01;
shapes = (
{
closed = 1;
nodes = (
(191,244,l),
(482,245,ls),
(542,245,o),
(601,275,o),
(610,334,cs),
(634,499,ls),
(648,595,o),
(583,699,o),
(434,699,cs),
(242,699,ls),
(112,699,o),
(24,629,o),
(42,499,c),
(41,499,l),
(139,-1,l),
(191,-1,l)
);
},
{
closed = 1;
nodes = (
(510,499,l),
(510,302,l),
(187,302,l),
(187,499,l)
);
},
{
closed = 1;
nodes = (
(667,3,l),
(495,302,l),
(436,268,l),
(589,3,l)
);
}
);
width = 674;
}
);
},
{
glyphname = S.001;
lastChange = "2023-11-27 18:33:17 +0000";
layers = (
{
layerId = m01;
shapes = (
{
closed = 1;
nodes = (
(486,200,l),
(22,200,l),
(4,70,o),
(92,0,o),
(222,0,cs),
(414,0,ls),
(542,0,o),
(613,51,o),
(618,148,cs),
(619,182,o),
(598,210,o),
(570,228,cs),
(142,500,l),
(614,500,l),
(636,630,o),
(563,700,o),
(414,700,cs),
(222,700,ls),
(112,700,o),
(32,650,o),
(21,556,cs),
(17,520,o),
(39,490,o),
(69,470,cs)
);
}
);
width = 632;
}
);
},
{
glyphname = S.002;
layers = (
{
layerId = m01;
shapes = (
{
closed = 1;
nodes = (
(614,500,l),
(636,630,o),
(563,700,o),
(414,700,cs),
(222,700,ls),
(92,700,o),
(4,630,o),
(22,500,c)
);
},
{
closed = 1;
nodes = (
(4,70,o),
(92,0,o),
(222,0,cs),
(414,0,ls),
(563,0,o),
(636,70,o),
(614,200,c),
(22,200,l)
);
},
{
closed = 1;
nodes = (
(58.304,553.652,l),
(21.696,496.348,l),
(572.696,144.348,l),
(609.304,201.652,l)
);
}
);
width = 632;
}
);
},
{
glyphname = S.008;
layers = (
{
layerId = m01;
shapes = (
{
closed = 1;
nodes = (
(624,500,l),
(646,630,o),
(573,700,o),
(424,700,cs),
(232,700,ls),
(102,700,o),
(14,630,o),
(32,500,c)
);
},
{
closed = 1;
nodes = (
(181,325,l),
(181,500,l),
(31,500,l),
(66,325,l)
);
},
{
closed = 1;
nodes = (
(626,375,l),
(476,375,l),
(476,143,l),
(588,143,l)
);
},
{
closed = 1;
nodes = (
(181,325,l),
(492,325,l),
(492,375,l),
(181,375,l)
);
},
{
closed = 1;
nodes = (
(113,150,l),
(126,46,o),
(170,0,o),
(274,0,cs),
(429,0,ls),
(534,0,o),
(572,46,o),
(590,150,c)
);
}
);
width = 658;
}
);
},
{
glyphname = X.001;
layers = (
{
layerId = m01;
shapes = (
{
closed = 1;
nodes = (
(241,371,l),
(181,702,l),
(80,699,o),
(7,653,o),
(39,591,cs),
(152,371,l)
);
},
{
closed = 1;
nodes = (
(39,117,ls),
(6,54,o),
(80,9,o),
(181,6,c),
(241,331,l),
(152,331,l)
);
},
{
closed = 1;
nodes = (
(157,324,l),
(402,324,l),
(402,374,l),
(157,374,l)
);
},
{
closed = 1;
nodes = (
(516,591,ls),
(548,653,o),
(475,699,o),
(374,702,c),
(314,371,l),
(403,371,l)
);
},
{
closed = 1;
nodes = (
(314,331,l),
(374,6,l),
(475,9,o),
(549,54,o),
(516,117,cs),
(403,331,l)
);
}
);
width = 600;
}
);
},
{
glyphname = Y.001;
lastChange = "2023-11-28 02:56:31 +0000";
layers = (
{
layerId = m01;
shapes = (
{
closed = 1;
nodes = (
(589,311,o)
);
},
{
closed = 1;
nodes = (
(41,70,o),
(129,0,o),
(259,0,cs),
(391,0,ls),
(540,0,o),
(613,70,o),
(591,200,c),
(59,200,l)
);
},
{
closed = 1;
nodes = (
(506,700,l),
(461,700,l),
(461,200,l),
(591,200,l)
);
}
);
width = 600;
}
);
},
{
glyphname = Y.002;
lastChange = "2023-11-27 19:39:13 +0000";
layers = (
{
layerId = m01;
shapes = (
{
closed = 1;
nodes = (
(177,441,l),
(177,701,l),
(135,701,l),
(37,441,l)
);
},
{
closed = 1;
nodes = (
(23,311,o),
(102,241,o),
(218,241,cs),
(390,241,ls),
(523,241,o),
(589,311,o),
(568,441,c),
(38,441,l)
);
},
{
closed = 1;
nodes = (
(468,701,l),
(426,701,l),
(426,441,l),
(566,441,l)
);
},
{
closed = 1;
nodes = (
(231,439,l),
(288,4,l),
(322,4,l),
(377,439,l)
);
}
);
width = 600;
}
);
},
{
glyphname = Z.001;
lastChange = "2023-11-27 18:35:46 +0000";
layers = (
{
layerId = m01;
shapes = (
{
attr = {
strokeWidth = 50;
};
closed = 0;
nodes = (
(4,182,l),
(580,518,l)
);
},
{
closed = 1;
nodes = (
(0,68,o),
(60,0,o),
(186,0,cs),
(375,0,ls),
(519,0,o),
(556,56,o),
(584,200,c),
(-8,200,l)
);
},
{
closed = 1;
nodes = (
(610,630,o),
(522,700,o),
(392,700,cs),
(200,700,ls),
(51,700,o),
(-22,630,o),
(0,500,c),
(592,500,l)
);
}
);
width = 678;
}
);
},
{
glyphname = a;
lastChange = "2023-11-08 03:52:47 +0000";
layers = (
{
layerId = m01;
shapes = (
{
closed = 1;
nodes = (
(455,367,l),
(471,460,o),
(419,510,o),
(312,510,cs),
(175,510,ls),
(82,510,o),
(19,460,o),
(32,367,c)
);
},
{
closed = 1;
nodes = (
(348,367,l),
(348,157,l),
(348,-5,l),
(385,-5,l),
(455,367,l)
);
},
{
closed = 1;
nodes = (
(34,65,ls),
(44,19,o),
(68,-5,o),
(130,-5,cs),
(220,-5,ls),
(281,-5,o),
(318,25,o),
(327,65,cs),
(360,218,ls),
(372,275,o),
(319,305,o),
(232,305,cs),
(119,305,ls),
(43,305,o),
(-9,275,o),
(3,218,c),
(0,218,l)
);
},
{
closed = 1;
nodes = (
(85,204,l),
(265,207,l),
(265,74,l),
(85,74,l)
);
}
);
width = 488;
}
);
unicode = 97;
},
{
glyphname = b;
lastChange = "2023-11-08 15:20:05 +0000";
layers = (
{
layerId = m01;
shapes = (
{
closed = 1;
nodes = (
(84,-5,l),
(118,-5,l),
(169,644,l),
(176,678,o),
(157,697,o),
(122,697,cs),
(76,697,ls),
(47,697,o),
(27,678,o),
(30,644,cs)
);
},
{
closed = 1;
nodes = (
(125,114,l),
(134,40,o),
(164,-6,o),
(235,-6,cs),
(340,-6,ls),
(412,-6,o),
(438,40,o),
(450,114,cs),
(491,365,ls),
(506,458,o),
(456,507,o),
(354,507,cs),
(223,507,ls),
(134,507,o),
(74,458,o),
(87,365,c),
(86,365,l)
);
},
{
closed = 1;
nodes = (
(181,365,l),
(405,365,l),
(405,115,l),
(181,115,l)
);
}
);
width = 564;
}
);
unicode = 98;
},
{
glyphname = e;
lastChange = "2023-11-08 03:56:12 +0000";
layers = (
{
layerId = m01;
shapes = (
{
closed = 1;
nodes = (
(177,508,o),
(110,519,o),
(89,422,c),
(33,104,ls),
(11,-22,o),
(106,-5,o),
(215,-5,cs),
(283,-5,ls),
(398,-5,o),
(461,45,o),
(461,141,c),
(124,141,l),
(124,229,l),
(424,229,l),
(424,283,l),
(124,283,l),
(124,361,l),
(461,361,l),
(461,457,o),
(405,508,o),
(302,508,cs),
(246,508,ls)
);
},
{
closed = 1;
nodes = (
(357,436,ls),
(353,430,o),
(427,373,o),
(386,229,c),
(445,229,l),
(496,270,o),
(463,470,o),
(394,487,c)
);
}
);
width = 500;
}
);
unicode = 101;
},
{
glyphname = n;
lastChange = "2023-11-08 03:56:55 +0000";
layers = (
{
layerId = m01;
shapes = (
{
closed = 1;
nodes = (
(465,366,l),
(481,460,o),
(427,510,o),
(319,510,cs),
(178,510,ls),
(83,510,o),
(19,460,o),
(32,366,c)
);
},
{
closed = 1;
nodes = (
(104,0,l),
(143,0,l),
(143,366,l),
(32,366,l)
);
},
{
closed = 1;
nodes = (
(419,223,l),
(76,223,l)
);
},
{
closed = 1;
nodes = (
(355,366,l),
(355,0,l),
(394,0,l),
(466,366,l)
);
}
);
width = 498;
}
);
unicode = 110;
},
{
glyphname = s;
lastChange = "2023-11-08 03:57:21 +0000";
layers = (
{
layerId = m01;
shapes = (
{
closed = 1;
nodes = (
(30,10,o),
(79,1,o),
(172,1,cs),
(309,1,ls),
(413,1,o),
(454,47,o),
(454,136,cs),
(454,354,o),
(125,217,o),
(79,361,c),
(79,364,l),
(424,363,l),
(438,458,o),
(391,507,o),
(296,507,cs),
(173,507,ls),
(92,507,o),
(37,453,o),
(45,363,c),
(77,154,o),
(414,294,o),
(422,133,c),
(30,134,l)
);
}
);
width = 484;
}
);
unicode = 115;
},
{
glyphname = b.001;
layers = (
{
layerId = m01;
shapes = (
{
closed = 1;
nodes = (
(94,4,l),
(128,4,l),
(179,644,l),
(186,678,o),
(167,697,o),
(132,697,cs),
(86,697,ls),
(57,697,o),
(37,678,o),
(40,644,cs)
);
},
{
closed = 1;
nodes = (
(175,109,l),
(184,38,o),
(214,0,o),
(285,0,cs),
(390,0,ls),
(462,0,o),
(488,38,o),
(500,109,cs),
(541,348,ls),
(556,437,o),
(506,484,o),
(404,484,cs),
(273,484,ls),
(184,484,o),
(124,437,o),
(137,348,c),
(136,348,l)
);
},
{
closed = 1;
nodes = (
(231,348,l),
(445,348,l),
(445,110,l),
(231,110,l)
);
}
);
width = 600;
}
);
},
{
glyphname = b.002;
lastChange = "2023-11-08 03:47:30 +0000";
layers = (
{
layerId = m01;
shapes = (
{
closed = 1;
nodes = (
(94,4,l),
(128,4,l),
(179,644,l),
(186,678,o),
(167,697,o),
(132,697,cs),
(86,697,ls),
(57,697,o),
(37,678,o),
(40,644,cs)
);
},
{
closed = 1;
nodes = (
(160,114,ls),
(172,40,o),
(199,1,o),
(270,1,cs),
(373,1,ls),
(443,1,o),
(485,49,o),
(495,114,cs),
(533,360,ls),
(547,452,o),
(486,500,o),
(386,500,cs),
(257,500,ls),
(170,500,o),
(111,452,o),
(125,360,c),
(121,360,l)
);
},
{
closed = 1;
nodes = (
(218,337,l),
(424,342,l),
(424,128,l),
(218,128,l)
);
}
);
width = 600;
}
);
},
